PathFileType	4	(X/Y/Z)	D:\TRACE\spot_10-12-23\spot_arm_body_motion_3_8-v60.trc
DataRate	CameraRate	NumFrames	NumMarkers	Units	OrigDataRate	OrigDataStartFrame	OrigNumFrames
100.00	100.00	      17	9	mm	100.00	876	      7000
Frame#	Time	front left toe			Front right toe			aft left toe			aft right toe			Arm			FL body			FR body			AL Body			AR Body			
		X1	Y1	Z1	X2	Y2	Z2	X3	Y3	Z3	X4	Y4	Z4	X5	Y5	Z5	X6	Y6	Z6	X7	Y7	Z7	X8	Y8	Z8	X9	Y9	Z9	

876	8.750	-146.23247	5.16043	-381.73291	252.72958	-8.75283	-489.98724	-81.85973	30.80511	216.66258	366.11227	19.07295	128.10979	32.59860	782.61945	-755.23901	-5.02904	584.77618	-492.92780	145.71663	590.62244	-516.93848	127.31825	575.09259	381.32071	277.02087	574.49890	360.75119	
877	8.760	-142.71899	15.23981	-378.16867	253.14496	-8.70675	-489.69257	-81.73338	31.03428	216.81914	366.30484	19.05361	128.03259	33.04902	782.63019	-755.43835	-4.28819	584.10114	-492.57605	146.06918	590.03979	-516.70386	127.85707	574.44934	381.88846	277.22073	574.25409	361.04608	
878	8.770	-142.12378	24.25233	-374.02603	253.22940	-9.02981	-489.74133	-81.69169	31.03712	216.88217	366.33911	19.26382	128.19626	33.64183	782.47186	-755.61615	-3.97487	583.27850	-492.07730	146.59601	589.61322	-516.19843	128.06502	574.14905	382.14764	277.45065	574.12177	361.64008	
879	8.780	-142.29469	30.90305	-374.38315	253.28590	-8.94421	-489.71008	-81.63663	31.08325	217.05193	366.39661	19.25221	128.30829	33.78208	782.13739	-755.68640	-3.92787	582.78064	-491.83224	146.80789	588.84924	-515.48657	128.32451	573.97455	382.30234	277.59494	574.05164	362.01089	
880	8.790	-144.01271	36.00933	-379.10791	253.35793	-8.76844	-489.62213	-81.55865	31.10618	217.08061	366.57510	19.13679	128.30704	33.67925	781.64648	-755.76379	-3.95260	581.93469	-491.23676	146.48335	588.09479	-515.07800	128.56963	573.91278	382.88022	277.88797	573.96564	362.49258	
881	8.800	-144.64355	39.95325	-386.32239	253.21294	-8.56355	-489.63589	-81.53883	31.10648	217.17706	366.61713	19.03607	128.33324	33.67299	781.25317	-755.84113	-4.10039	581.63702	-490.66562	146.42128	587.70282	-514.77802	128.69800	573.82709	383.86551	278.01257	573.75531	362.95959	
882	8.810	-144.44763	41.28782	-391.31860	252.99214	-8.35051	-489.67920	-81.53384	30.97227	217.26523	366.67303	19.00485	128.40092	33.58675	781.02441	-755.90955	-4.23561	581.29553	-490.06723	146.39230	587.33337	-514.29688	128.59084	573.51038	384.43771	277.87613	573.32379	363.34183	
883	8.820	-142.58189	40.28649	-393.04175	252.74652	-8.13592	-489.72659	-81.57471	30.81692	217.28990	366.69406	19.05063	128.48790	33.75478	780.81848	-756.04401	-4.29682	581.02374	-489.70047	146.31674	586.98572	-513.64105	128.27351	573.13910	384.72000	277.47079	572.99573	363.79568	
884	8.830	-139.94029	38.78801	-392.17780	252.47905	-7.91924	-489.77686	-81.57412	30.66142	217.30316	366.70456	19.25969	128.56396	33.84103	780.61511	-756.16785	-4.54741	580.46063	-489.48651	146.15733	586.61243	-513.31958	127.77891	572.73157	384.58563	277.03598	572.64850	364.31305	
885	8.840	-138.52426	36.41111	-390.35544	252.19278	-7.69990	-489.82861	-81.58927	30.47686	217.29883	366.63797	19.39961	128.65256	34.21202	780.40094	-756.25970	-4.79774	579.78082	-489.21967	145.70988	586.05920	-512.91205	127.05463	572.37750	385.18582	276.46985	572.56757	364.57166	
886	8.850	-137.19923	35.60405	-390.21490	251.89066	-7.47735	-489.88068	-81.59678	30.28074	217.37666	366.63132	19.41633	128.72246	34.63795	780.19141	-756.14679	-5.05592	579.18164	-488.95654	145.66397	585.74615	-512.69006	126.31433	572.04858	385.49701	275.92694	572.58820	365.09274	
887	8.860	-136.64960	38.50298	-391.91354	251.57574	-7.25105	-489.93158	-81.63802	29.96979	217.57436	366.64545	19.44241	128.81650	34.89034	779.66992	-756.10565	-5.55554	578.70605	-488.69540	145.25465	585.48395	-512.30536	125.81338	571.64124	385.68646	275.11154	572.32147	365.44125	
888	8.870	-136.21472	44.41190	-395.78717	251.25101	-7.02042	-489.98016	-81.76771	29.69821	217.77284	366.53226	19.40771	128.83055	34.88155	778.72949	-756.35162	-6.31530	578.71191	-488.40216	144.58051	585.09534	-511.81210	125.39281	571.48694	386.22076	274.62991	571.92328	365.70325	
889	8.880	-136.05313	52.29350	-401.20657	250.91948	-6.78492	-490.02505	-81.72881	29.53987	217.97443	366.42813	19.33282	128.79926	35.07269	777.35400	-757.51050	-7.04078	578.41113	-487.80139	143.57780	584.88824	-511.83478	124.61803	571.17273	386.45331	274.25143	571.52637	365.90155	
890	8.890	-135.65163	59.91621	-408.10724	250.58415	-6.54399	-490.06497	-81.65205	29.57053	218.08205	366.41266	19.36333	128.85562	35.16710	775.23358	-758.73969	-7.98096	578.10114	-487.36346	142.52925	584.53613	-511.40103	124.23822	571.12024	386.73077	273.70959	571.45142	366.11871	
891	8.900	-135.29915	64.43415	-415.31140	250.24805	-6.29708	-490.09857	-81.49979	29.64720	218.20061	366.27875	19.34332	128.83865	35.43233	773.35205	-760.59613	-9.06775	577.68140	-487.05594	141.43790	584.15302	-511.15738	123.71601	571.40857	387.10742	273.00549	571.60229	366.38028	
892	8.910	-134.39249	65.72173	-421.76627	249.91418	-6.04364	-490.12463	-81.44030	29.62047	218.26288	366.20563	19.35575	128.77184	35.64183	771.79541	-762.32050	-9.99384	577.34973	-486.82797	140.42372	583.66168	-511.12753	123.14767	571.65302	387.60147	272.30478	571.81653	366.59100	
